<?xml version="1.0" encoding="UTF-8" standalone="no"?>
<!-- Generator: Adobe Illustrator 15.0.0, SVG Export Plug-In . SVG Version: 6.00 Build 0)  -->

<svg
   xmlns:dc="http://purl.org/dc/elements/1.1/"
   xmlns:cc="http://creativecommons.org/ns#"
   xmlns:rdf="http://www.w3.org/1999/02/22-rdf-syntax-ns#"
   xmlns:svg="http://www.w3.org/2000/svg"
   xmlns="http://www.w3.org/2000/svg"
   xmlns:sodipodi="http://sodipodi.sourceforge.net/DTD/sodipodi-0.dtd"
   xmlns:inkscape="http://www.inkscape.org/namespaces/inkscape"
   version="1.1"
   id="Calque_1"
   x="0px"
   y="0px"
   width="668.592px"
   height="118.56px"
   viewBox="0 0 668.592 118.56"
   enable-background="new 0 0 668.592 118.56"
   xml:space="preserve"
   inkscape:version="0.91 r13725"
   sodipodi:docname="cocoDashboard.svg"><metadata
     id="metadata41"><rdf:RDF><cc:Work
         rdf:about=""><dc:format>image/svg+xml</dc:format><dc:type
           rdf:resource="http://purl.org/dc/dcmitype/StillImage" /></cc:Work></rdf:RDF></metadata><defs
     id="defs39" /><sodipodi:namedview
     pagecolor="#ffffff"
     bordercolor="#666666"
     borderopacity="1"
     objecttolerance="10"
     gridtolerance="10"
     guidetolerance="10"
     inkscape:pageopacity="0"
     inkscape:pageshadow="2"
     inkscape:window-width="1600"
     inkscape:window-height="837"
     id="namedview37"
     showgrid="false"
     inkscape:zoom="3.1558958"
     inkscape:cx="282.19529"
     inkscape:cy="83.585967"
     inkscape:window-x="-8"
     inkscape:window-y="-8"
     inkscape:window-maximized="1"
     inkscape:current-layer="g3" /><g
     id="g3"><path
       fill="#272F68"
       d="M381.76,94.734c-5.041-3.9-9.121-7.62-9.061-8.16c0.119-0.54,0.779-3,1.439-5.399   c0.721-2.4,1.5-9.181,1.801-15.061c0.42-9.3,0.6-10.56,1.74-10.08c0.719,0.24,6.479,2.28,12.898,4.56   c6.361,2.22,11.881,4.319,12.301,4.62c0.9,0.84-0.84,12.359-2.939,19.14c-1.74,5.82-5.221,13.08-7.5,15.78l-1.5,1.739   L381.76,94.734L381.76,94.734z"
       id="path5" /><path
       fill="#808081"
       d="M350.199,116.154c-5.701-0.78-9.9-2.16-14.4-4.68c-3.42-1.86-10.381-7.92-10.381-9   c0-0.3,4.32-3.3,9.602-6.72l9.66-6.24l2.16,2.04c1.199,1.14,3.18,2.399,4.379,2.88c3.18,1.2,10.5,1.08,13.621-0.24   c2.578-1.08,7.738-6.24,7.738-7.8c0-0.42,4.32,2.52,9.602,6.54c5.279,4.08,9.6,7.62,9.6,7.979c0,1.381-8.939,8.82-13.26,10.98   C371.318,115.554,359.26,117.354,350.199,116.154L350.199,116.154z"
       id="path7" /><path
       fill="#E94F1E"
       d="M323.738,100.314c-3.479-5.1-5.879-10.08-8.219-17.1c-2.221-6.54-2.58-8.82-2.881-18.48l-0.359-10.98h11.1   c6.061,0,12.18-0.24,13.561-0.54l2.459-0.48v10.32c0,10.5,1.5,18.66,4.381,24.359l1.199,2.28l-9.48,6.42   c-5.219,3.54-9.658,6.42-9.898,6.42C325.418,102.534,324.578,101.574,323.738,100.314L323.738,100.314z"
       id="path9" /><path
       fill="#E5231F"
       d="M312.818,49.614c1.021-7.44,5.34-19.02,9.541-25.26c7.5-11.16,16.32-16.74,28.98-18.48l4.439-0.6   l1.199,2.88c0.66,1.56,2.58,6.42,4.32,10.74l3.061,7.92l-3.24-0.54c-10.5-1.68-19.439,7.92-21.121,22.56l-0.539,4.98H325.84   h-13.621L312.818,49.614L312.818,49.614z"
       id="path11"
       style="fill:#0a652e;fill-opacity:1" /><path
       fill="#010202"
       d="M42.399,118.374c-11.34-1.199-19.261-4.92-27.3-12.779c-6.18-6.12-9.54-11.641-12.42-20.4   c-2.82-8.76-3.6-29.82-1.44-39.42c2.22-9.96,7.5-20.1,13.8-26.52c9.24-9.36,18.961-13.2,33.78-13.2   c14.521,0,22.319,2.7,30.601,10.56c7.02,6.72,10.68,14.04,12.959,25.92l1.021,5.28l-3.3,0.48c-1.801,0.24-7.801,0.66-13.381,0.96   l-10.08,0.48l-0.539-4.62c-1.68-14.16-10.86-21.18-23.1-17.64c-10.861,3.18-15.781,16.56-14.761,40.08   c0.601,13.8,2.28,19.74,6.841,24.72c4.26,4.56,10.619,6.48,17.279,5.22c7.439-1.38,12-6.12,14.641-15.12l1.379-4.92l12,0.54   c6.601,0.301,12.181,0.721,12.36,0.9c1.021,0.9-1.8,11.7-4.44,17.04C80.378,112.014,62.979,120.534,42.399,118.374L42.399,118.374z    M142.419,118.434c-17.641-2.34-30.9-15.48-36.961-36.48c-1.619-5.52-1.859-8.159-1.859-19.979c0-15.12,1.199-21.3,6.119-31.02   c8.761-17.4,20.881-24.9,40.261-24.9c13.08,0,21.06,2.7,28.62,9.78c19.08,17.88,23.76,54,10.32,79.74   c-5.82,11.16-16.681,19.86-27.301,21.9C155.019,118.674,147.339,119.094,142.419,118.434L142.419,118.434z M157.059,96.474   c3.12-1.26,7.319-5.88,9-9.9c4.02-9.479,4.739-34.26,1.319-44.88c-3.359-10.26-8.76-14.88-17.399-14.88   c-11.521,0.06-17.58,8.1-19.62,26.04c-1.32,12.24,0,25.5,3.359,33.479c1.86,4.32,5.701,8.58,9.061,10.08   C145.958,97.854,153.759,97.854,157.059,96.474L157.059,96.474z M251.199,118.374c-11.34-1.199-19.26-4.92-27.3-12.779   c-6.18-6.12-9.54-11.641-12.42-20.4c-1.8-5.58-2.101-8.22-2.46-19.8c-0.48-16.08,0.6-22.02,5.82-33   c5.76-12.06,14.34-20.04,26.279-24.3c4.98-1.8,6.96-2.04,16.08-2.04c12,0.06,16.98,1.14,24.72,5.46   c10.261,5.76,17.22,17.16,19.621,32.34l0.6,3.96l-3.24,0.48c-1.8,0.24-7.8,0.66-13.38,0.96l-10.08,0.48l-0.54-4.62   c-0.6-5.22-2.94-11.04-5.521-13.8c-5.399-5.76-16.079-6.3-22.859-1.14c-3.42,2.58-7.26,10.68-8.641,18.18   c-0.96,5.46-0.899,25.32,0.12,30.24c0.96,4.62,3,9.84,4.86,12.3c4.02,5.34,11.28,7.979,18.24,6.6c7.56-1.38,12.06-6.06,14.7-15.12   l1.38-4.979l12.42,0.6c6.84,0.301,12.479,0.601,12.6,0.721c0.119,0.119-0.359,2.88-1.08,6.119   C296.378,107.634,276.399,121.014,251.199,118.374L251.199,118.374z"
       id="path13" /><path
       fill="#0A652E"
       d="M397.359,55.734l-12.781-4.56l-1.318-8.04c-1.92-11.94-6-18.78-12.301-21.12   c-2.279-0.78-2.881-1.86-6.541-11.34l-4.078-10.5l3.719-0.3c5.76-0.42,14.34,1.38,20.58,4.32c10.801,5.16,20.4,18.36,24.359,33.6   c1.74,6.78,3.061,22.8,1.861,22.68C410.439,60.414,404.379,58.314,397.359,55.734L397.359,55.734z"
       id="path15"
       style="fill:#e5231f;fill-opacity:1" /><g
       id="g17"><path
         d="M424.598,71.294h10.504c5.087,0,9.153,0.9,12.198,2.7c3.045,1.8,5.35,4.478,6.912,8.032s2.344,7.497,2.344,11.826    c0,4.558-0.702,8.619-2.104,12.185c-1.402,3.566-3.547,6.443-6.433,8.63s-6.998,3.281-12.335,3.281h-11.086V71.294z     M432.322,77.481v34.282h3.22c4.498,0,7.764-1.555,9.796-4.666s3.049-7.263,3.049-12.458c0-11.438-4.281-17.158-12.845-17.158    H432.322z"
         id="path19" /><path
         d="M468.914,84.625h6.185l8.947,33.325h-5.586l-2.091-8.35h-9.771l-2.071,8.35h-5.261L468.914,84.625z M475.281,105.254    l-3.821-15.259l-3.785,15.259H475.281z"
         id="path21" /><path
         d="M507.215,92.071l-4.712,1.636c-0.554-1.766-1.281-3.07-2.186-3.912c-0.902-0.843-2.136-1.264-3.698-1.264    c-1.449,0-2.567,0.429-3.356,1.286c-0.79,0.857-1.185,1.84-1.185,2.951c0,1.225,0.443,2.2,1.331,2.926    c0.887,0.726,2.656,1.594,5.31,2.603c2.262,0.863,4.004,1.685,5.225,2.466s2.21,1.827,2.966,3.137    c0.758,1.311,1.136,2.828,1.136,4.553c0,2.8-0.989,5.184-2.966,7.153c-1.979,1.97-4.749,2.954-8.313,2.954    c-6.152,0-9.961-3.108-11.426-9.326l4.932-1.392c0.862,4.102,3.108,6.152,6.738,6.152c1.773,0,3.121-0.459,4.04-1.379    c0.92-0.919,1.38-2.055,1.38-3.406c0-0.993-0.317-1.912-0.952-2.759c-0.635-0.846-2.214-1.75-4.736-2.71    c-2.67-1.009-4.594-1.863-5.773-2.563c-1.181-0.7-2.186-1.733-3.016-3.101s-1.245-2.921-1.245-4.663    c0-2.653,0.924-4.883,2.771-6.689c1.848-1.807,4.301-2.71,7.361-2.71C502.259,84.014,505.717,86.7,507.215,92.071z"
         id="path23" /><path
         d="M512.928,84.625h5.518v13.818h9.814V84.625h5.518v33.325h-5.518v-14.844h-9.814v14.844h-5.518V84.625z"
         id="path25" /><path
         d="M540.174,84.625h10.083c2.539,0,4.468,0.204,5.786,0.61c1.318,0.407,2.433,1.314,3.345,2.722    c0.911,1.408,1.367,3.121,1.367,5.139c0,3.695-1.652,6.128-4.956,7.3c3.987,1.253,5.981,4.045,5.981,8.374    c0,2.458-0.785,4.602-2.355,6.433c-1.571,1.831-4.578,2.747-9.021,2.747h-10.229V84.625z M545.569,98.443h3.491    c2.457,0,4.077-0.452,4.858-1.355s1.172-2.071,1.172-3.503c0-1.676-0.448-2.876-1.343-3.601c-0.896-0.724-2.279-1.086-4.15-1.086    h-4.028V98.443z M545.569,113.531h4.443c4.068,0,6.104-1.798,6.104-5.396c0-1.399-0.432-2.653-1.294-3.76    c-0.863-1.106-2.621-1.66-5.273-1.66h-3.979V113.531z"
         id="path27" /><path
         d="M589.881,101.275c0,5.697-1.018,10.002-3.052,12.915c-2.035,2.914-4.989,4.37-8.862,4.37    c-3.891,0-6.869-1.453-8.936-4.358c-2.067-2.905-3.101-7.214-3.101-12.927c0-5.664,1.025-9.957,3.076-12.878    c2.051-2.921,5.029-4.382,8.936-4.382c3.857,0,6.812,1.453,8.862,4.358S589.881,95.579,589.881,101.275z M584.095,101.287    c0-3.959-0.46-7.074-1.379-9.347c-0.92-2.273-2.527-3.409-4.822-3.409s-3.898,1.141-4.81,3.421    c-0.912,2.281-1.367,5.393-1.367,9.335c0,3.877,0.447,6.973,1.343,9.287c0.895,2.313,2.53,3.47,4.907,3.47    c2.229,0,3.809-1.12,4.736-3.36C583.631,108.443,584.095,105.311,584.095,101.287z"
         id="path29" /><path
         d="M600.921,84.625h6.185l8.947,33.325h-5.586l-2.091-8.35h-9.771l-2.07,8.35h-5.262L600.921,84.625z M607.288,105.254    l-3.82-15.259l-3.786,15.259H607.288z"
         id="path31" /><path
         d="M619.373,84.625h10.034c3.629,0,6.307,0.822,8.032,2.466c1.725,1.644,2.588,4.004,2.588,7.08    c0,4.102-1.701,7.007-5.103,8.716l6.323,15.063h-5.984l-5.18-13.916h-5.193v13.916h-5.518V84.625z M624.891,88.897v10.864h4.224    c1.888,0,3.275-0.521,4.162-1.563c0.888-1.042,1.331-2.4,1.331-4.077c0-3.483-1.815-5.225-5.444-5.225H624.891z"
         id="path33" /><path
         d="M645.765,84.625h7.503c3.634,0,6.538,0.643,8.713,1.929c2.175,1.286,3.821,3.198,4.938,5.737s1.674,5.355,1.674,8.447    c0,3.255-0.501,6.157-1.503,8.704c-1.002,2.547-2.534,4.602-4.595,6.165c-2.062,1.563-4.999,2.344-8.811,2.344h-7.919V84.625z     M651.282,89.043v24.487h2.3c3.213,0,5.546-1.111,6.997-3.333c1.452-2.222,2.178-5.188,2.178-8.899    c0-8.17-3.059-12.256-9.175-12.256H651.282z"
         id="path35" /></g></g></svg>